<svg width="31" height="32" viewBox="0 0 31 32" fill="none" xmlns="http://www.w3.org/2000/svg">
<path d="M17.7386 1.63007L18.4865 3.79949C18.5979 4.12279 18.7739 4.41835 19.0029 4.66708C19.2319 4.91581 19.509 5.11217 19.8161 5.24349C20.1232 5.37481 20.4537 5.43815 20.786 5.42944C21.1183 5.42072 21.4452 5.34013 21.7455 5.19288L23.7606 4.20484C25.7795 3.21413 27.8863 5.38889 26.9266 7.47298L25.9694 9.55306C25.8263 9.86297 25.7479 10.2004 25.7393 10.5436C25.7306 10.8868 25.7919 11.228 25.9192 11.5452C26.0465 11.8623 26.2368 12.1483 26.478 12.3847C26.7192 12.6211 27.0058 12.8025 27.3192 12.9172L29.4209 13.6879C31.5264 14.4613 31.5264 17.5361 29.4209 18.3108L27.3192 19.0828C27.0061 19.1979 26.7197 19.3795 26.4788 19.6159C26.2378 19.8523 26.0476 20.1383 25.9204 20.4553C25.7932 20.7724 25.7318 21.1135 25.7402 21.4565C25.7487 21.7996 25.8267 22.137 25.9694 22.4469L26.9266 24.527C27.8863 26.6111 25.7795 28.7859 23.7606 27.7952L21.7455 26.8071C21.4453 26.6596 21.1185 26.5788 20.7862 26.5699C20.4538 26.561 20.1234 26.6242 19.8162 26.7554C19.509 26.8866 19.232 27.0829 19.0029 27.3316C18.7738 27.5803 18.5979 27.8759 18.4865 28.1992L17.7386 30.3699C16.9894 32.5434 14.0106 32.5434 13.2614 30.3699L12.5135 28.1992C12.4019 27.876 12.2259 27.5806 11.9968 27.332C11.7677 27.0834 11.4907 26.8872 11.1835 26.756C10.8764 26.6248 10.5461 26.5616 10.2138 26.5704C9.88151 26.5792 9.55473 26.6598 9.25453 26.8071L7.23945 27.7938C5.22049 28.7859 3.11369 26.6111 4.07344 24.527L5.03061 22.4469C5.17369 22.1368 5.25211 21.7992 5.26078 21.4558C5.26945 21.1125 5.20818 20.7711 5.08094 20.4537C4.9537 20.1363 4.76332 19.8501 4.52212 19.6135C4.28092 19.3768 3.99429 19.1952 3.68076 19.0801L1.57913 18.3094C-0.526376 17.5361 -0.526376 14.4599 1.57913 13.6866L3.68076 12.9159C3.99429 12.8012 4.28102 12.6199 4.5224 12.3837C4.76378 12.1474 4.95443 11.8615 5.08202 11.5444C5.20962 11.2273 5.27132 10.8861 5.26313 10.5429C5.25494 10.1996 5.17704 9.86195 5.03448 9.55173L4.07602 7.47164C3.11628 5.38622 5.22307 3.21147 7.24332 4.20217L9.25841 5.19155C9.55854 5.3386 9.88521 5.41907 10.2173 5.42776C10.5495 5.43645 10.8797 5.37316 11.1866 5.24199C11.4936 5.11082 11.7705 4.91468 11.9995 4.66622C12.2285 4.41776 12.4045 4.1225 12.5161 3.79949L13.2627 1.63007C14.0094 -0.543356 16.9894 -0.543356 17.7386 1.63007Z" fill="#FF884D"/>
</svg>
