<svg width="220" height="220" viewBox="0 0 220 220" fill="none" xmlns="http://www.w3.org/2000/svg">
<g clip-path="url(#clip0_108_2)">
<path d="M220.47 110C220.47 131.756 214.018 153.023 201.931 171.113C189.844 189.202 172.665 203.301 152.565 211.627C132.465 219.952 110.348 222.131 89.0098 217.886C67.6719 213.642 48.0718 203.166 32.688 187.782C17.3043 172.398 6.82777 152.798 2.5834 131.46C-1.66098 110.122 0.517387 88.0047 8.84303 67.9048C17.1687 47.805 31.2676 30.6253 49.357 18.5383C67.4465 6.45139 88.7138 0 110.47 0C139.644 0 167.623 11.5893 188.252 32.2183C208.881 52.8473 220.47 80.8262 220.47 110Z" fill="#43A047"/>
<path fill-rule="evenodd" clip-rule="evenodd" d="M78.56 50.2297L103.84 56.9997L109.5 35.9297L122.14 39.3597L116.7 59.5497L127 62.3197L132.43 41.9197L145.29 45.3497L139.75 65.8697C139.75 65.8697 160.75 70.5197 165.7 87.5997C170.65 104.68 154.85 113.66 150 114C150 114 168.41 124.09 162.09 143.94C155.77 163.79 136.36 167.34 115.96 162.79L110.41 184.08L97.55 180.65L103.21 159.65L93 156.91L87.32 178L74.57 174.57L80.22 153.57L54.27 146.57L60.82 132.05C60.82 132.05 68.13 134.05 70.91 134.71C73.69 135.37 75.45 132.49 76.23 129.61C77.01 126.73 88.76 78.9997 89.87 75.0697C90.98 71.1397 90.53 68.0697 85.87 66.8597C81.21 65.6497 74.87 63.7597 74.87 63.7597L78.56 50.2297ZM104.06 113.44L97.06 141.27C97.06 141.27 131.76 153.8 136.2 136.17C140.64 118.54 104.06 113.44 104.06 113.44ZM107.28 100.24L114.15 74.7397C114.15 74.7397 143.87 80.0597 140.21 94.2497C136.55 108.44 119 103 107.28 100.24Z" fill="white"/>
</g>
<defs>
<clipPath id="clip0_108_2">
<rect width="220" height="220" fill="white"/>
</clipPath>
</defs>
</svg>
